<svg width="32" height="32" viewBox="0 0 32 32" fill="none" xmlns="http://www.w3.org/2000/svg">
<g clip-path="url(#clip0_53_187)">
<path d="M13.9149 16.3554V16.3504C14.2174 16.2324 14.4169 15.9719 14.4169 15.4799C14.4169 14.7794 13.9614 14.4619 13.2649 14.4619C12.9319 14.4619 12.6304 14.4719 12.3069 14.5079V17.9009H12.9679V16.5599H13.3109C13.3979 16.5599 13.4184 16.6059 13.4439 16.7029L13.7574 17.9004H14.4479L14.0329 16.5134C14.0124 16.4274 13.9869 16.3759 13.9149 16.3554ZM13.3364 16.0324H12.9679V14.9989C13.0759 14.9889 13.1829 14.9834 13.2899 14.9834C13.6849 14.9834 13.7664 15.2189 13.7664 15.5204C13.7664 15.8789 13.6389 16.0324 13.3364 16.0324Z" fill="#45ADD6"/>
<path d="M18.463 16.4068H19.3605V15.8588H18.463V15.0403H19.458V14.4873H17.8035V17.9008H19.4985V17.3628H18.463V16.4068Z" fill="#45ADD6"/>
<path d="M5.24302 16.4068H6.13952V15.8588H5.24302V15.0403H6.23652V14.4873H4.58252V17.9008H6.27802V17.3628H5.24352L5.24302 16.4068Z" fill="#45ADD6"/>
<path d="M10.7291 16.4068H11.6266V15.8588H10.7291V15.0403H11.7236V14.4873H10.0691V17.9008H11.7641V17.3628H10.7291V16.4068Z" fill="#45ADD6"/>
<path d="M8.11154 15.7818L7.44054 14.4873H6.82104V17.9008H7.46654V15.6953L8.11205 16.9898L8.75204 15.6903H8.77254V17.9008H9.39205V14.4873H8.77254L8.11154 15.7818Z" fill="#45ADD6"/>
<path d="M16.1695 16.5547H16.6345V16.6772C16.6345 17.0312 16.5835 17.4302 16.1435 17.4302C15.57 17.4302 15.555 16.6167 15.555 16.1972C15.555 15.7817 15.5965 14.9942 16.1645 14.9942C16.4305 14.9942 16.5585 15.1422 16.7065 15.3262L17.0705 14.8397C16.8085 14.5797 16.5375 14.4302 16.174 14.4302C15.2065 14.4302 14.8625 15.3517 14.8625 16.2007C14.8625 17.0407 15.1755 17.9567 16.123 17.9567C17.049 17.9567 17.234 17.1527 17.234 16.4107V16.0122H16.169V16.5542L16.1695 16.5547Z" fill="#45ADD6"/>
<path d="M26.2194 17.9008H26.8754V16.5958L27.7409 14.4868H27.0694L26.5524 16.0423L26.0349 14.4868H25.3279L26.2199 16.6313L26.2194 17.9008Z" fill="#45ADD6"/>
<path d="M20.042 17.9008H20.6875V15.7928H20.703L21.799 17.9008H22.3775V14.4873H21.7375V16.5083H21.728L20.6825 14.4868H20.0425L20.042 17.9008Z" fill="#45ADD6"/>
<path d="M27.8264 0.413086H4.1489C2.1159 0.413086 0.212402 2.32059 0.212402 4.35309V28.0241C0.212402 30.0576 2.1234 31.9746 4.1574 31.9746H27.8274C29.8604 31.9746 31.7749 30.0676 31.7749 28.0346V4.35609C31.7749 2.32359 29.8604 0.413586 27.8264 0.413586V0.413086ZM28.6319 20.4051H20.2069V28.8216H11.7824V20.4051H3.3549V11.9826H11.7824V3.56609H20.2069V11.9826H28.6319V20.4051Z" fill="#45ADD6"/>
<path d="M24.2319 17.9572C24.6514 17.9577 24.9794 17.7627 25.2054 17.4862L24.8674 17.0047C24.6984 17.2297 24.5459 17.3987 24.2679 17.3987C23.7354 17.3987 23.6424 16.6572 23.6424 16.1967C23.6424 15.5822 23.7859 14.9937 24.2529 14.9937C24.5044 14.9937 24.6429 15.1622 24.7904 15.3882L25.1854 14.9217C24.9229 14.6102 24.6619 14.4302 24.2629 14.4302C23.3154 14.4302 22.9514 15.3207 22.9514 16.1967C22.9514 17.1232 23.2894 17.9572 24.2319 17.9572Z" fill="#45ADD6"/>
</g>
<defs>
<clipPath id="clip0_53_187">
<rect width="32" height="32" fill="white"/>
</clipPath>
</defs>
</svg>
