<svg width="32" height="32" viewBox="0 0 32 32" fill="none" xmlns="http://www.w3.org/2000/svg">
<path d="M25.0645 8.9332L21.2144 12.7833L21.2245 12.817L24.1483 23.5791C24.1983 23.8142 24.1922 24.0579 24.1305 24.2902C24.0687 24.5226 23.9531 24.7371 23.7929 24.9164L22.8278 25.8814C22.7654 25.9543 22.6857 26.0103 22.5959 26.0442C22.5061 26.0781 22.4093 26.0888 22.3143 26.0754C22.2193 26.0619 22.1292 26.0248 22.0523 25.9673C21.9755 25.9099 21.9143 25.834 21.8746 25.7467L17.92 18.5888L16.6653 17.3324L13.3474 20.6502C12.9671 20.9896 12.5421 21.2752 12.0843 21.4991L12.8253 23.9361C12.8815 24.1685 12.8804 24.411 12.822 24.6428C12.7636 24.8746 12.6497 25.0887 12.4901 25.2667L12.1954 25.5631C12.0449 25.7124 11.8415 25.7962 11.6295 25.7962C11.4175 25.7962 11.2141 25.7124 11.0636 25.5631L9.31204 23.8132L9.28173 23.7795L7.95457 22.4557L7.92089 22.422L6.17268 20.6721C6.02334 20.5217 5.93954 20.3183 5.93954 20.1062C5.93954 19.8942 6.02334 19.6908 6.17268 19.5404L6.4691 19.2439C6.64738 19.0849 6.86163 18.9717 7.09342 18.9139C7.3252 18.8561 7.56756 18.8555 7.79962 18.9121L10.2367 19.6498C10.4608 19.1921 10.7464 18.7671 11.0855 18.3867L14.4034 15.0688L13.147 13.8157L5.9891 9.8612C5.90178 9.82143 5.82589 9.7603 5.76844 9.68345C5.71099 9.6066 5.67383 9.51651 5.6604 9.4215C5.64698 9.3265 5.65771 9.22964 5.69161 9.13988C5.72551 9.05012 5.78148 8.97035 5.85436 8.90793L6.81941 7.94288C6.99876 7.78282 7.21328 7.66724 7.44561 7.6055C7.67793 7.54376 7.92153 7.5376 8.15668 7.58751L18.9188 10.5113L18.9525 10.5214L22.8026 6.6713C23.4257 6.04478 25.5327 4.95341 26.1592 5.57657C26.7824 6.20309 25.6893 8.30836 25.0645 8.9332Z" fill="#45ADD6"/>
</svg>
