<svg width="81" height="80" viewBox="0 0 81 80" fill="none" xmlns="http://www.w3.org/2000/svg">
<path d="M63.1612 22.3326L53.5359 31.9579L53.5612 32.0421L60.8706 58.9474C60.9958 59.5352 60.9805 60.1443 60.8262 60.7252C60.6718 61.306 60.3827 61.8423 59.9822 62.2905L57.5696 64.7032C57.4136 64.8853 57.2141 65.0253 56.9897 65.11C56.7653 65.1948 56.5232 65.2216 56.2857 65.188C56.0482 65.1545 55.8229 65.0616 55.6308 64.918C55.4387 64.7743 55.2858 64.5846 55.1864 64.3663L45.3001 46.4716L42.1633 43.3305L33.8685 51.6253C32.9178 52.4736 31.8553 53.1876 30.7106 53.7474L32.5633 59.84C32.7038 60.4208 32.701 61.0271 32.5551 61.6066C32.4091 62.1861 32.1243 62.7214 31.7254 63.1663L30.9885 63.9074C30.6123 64.2807 30.1038 64.4902 29.5738 64.4902C29.0438 64.4902 28.5353 64.2807 28.1591 63.9074L23.7801 59.5326L23.7043 59.4484L20.3864 56.1389L20.3022 56.0547L15.9317 51.68C15.5583 51.3038 15.3488 50.7953 15.3488 50.2653C15.3488 49.7352 15.5583 49.2267 15.9317 48.8505L16.6727 48.1095C17.1184 47.712 17.6541 47.4288 18.2335 47.2843C18.813 47.1398 19.4189 47.1383 19.9991 47.28L26.0917 49.1242C26.6519 47.9798 27.3659 46.9174 28.2138 45.9663L36.5085 37.6716L33.3675 34.5389L15.4727 24.6526C15.2544 24.5532 15.0647 24.4004 14.9211 24.2083C14.7775 24.0161 14.6846 23.7909 14.651 23.5534C14.6174 23.3159 14.6443 23.0737 14.729 22.8493C14.8138 22.6249 14.9537 22.4255 15.1359 22.2695L17.5485 19.8568C17.9969 19.4567 18.5332 19.1677 19.114 19.0134C19.6948 18.859 20.3038 18.8436 20.8917 18.9684L47.797 26.2779L47.8812 26.3032L57.5064 16.6779C59.0643 15.1116 64.3317 12.3832 65.898 13.941C67.4559 15.5074 64.7233 20.7705 63.1612 22.3326Z" fill="#45ADD6"/>
</svg>
