<svg width="32" height="32" viewBox="0 0 32 32" fill="none" xmlns="http://www.w3.org/2000/svg">
<path d="M26.32 11.59L26 11.5C25.8486 11.4716 25.7032 11.4175 25.57 11.34C26.0273 10.7871 26.3699 10.1486 26.5776 9.46179C26.7854 8.775 26.8542 8.05369 26.78 7.34V6.77C26.78 5.77013 26.3828 4.81122 25.6758 4.10421C24.9688 3.3972 24.0099 3 23.01 3C22.0101 3 21.0512 3.3972 20.3442 4.10421C19.6372 4.81122 19.24 5.77013 19.24 6.77V7.29C19.159 8.01175 19.2244 8.74242 19.4323 9.43831C19.6402 10.1342 19.9863 10.781 20.45 11.34L20.34 11.4C19.8828 10.6663 19.2463 10.0611 18.4905 9.64154C17.7347 9.22196 16.8845 9.00178 16.02 9.00178C15.1555 9.00178 14.3053 9.22196 13.5495 9.64154C12.7937 10.0611 12.1572 10.6663 11.7 11.4L11.59 11.34C12.0473 10.7871 12.3899 10.1486 12.5976 9.46179C12.8054 8.775 12.8742 8.05369 12.8 7.34V6.77C12.7844 5.76983 12.378 4.81546 11.6679 4.11096C10.9578 3.40645 10.0003 3.00771 9 3C8.00496 3.01547 7.05501 3.41763 6.35132 4.12132C5.64763 4.82501 5.24547 5.77496 5.23 6.77V7.29C5.14897 8.01175 5.21436 8.74242 5.42227 9.43831C5.63017 10.1342 5.97632 10.781 6.44 11.34C6.30377 11.4186 6.15487 11.4727 6 11.5L5.68 11.59C3.85 12.2 2 13.91 2 16C2 16.2652 2.10536 16.5196 2.29289 16.7071C2.48043 16.8946 2.73478 17 3 17C3.26522 17 3.51957 16.8946 3.70711 16.7071C3.89464 16.5196 4 16.2652 4 16C4 14.91 5.18 13.87 6.32 13.49C6.38772 13.4628 6.4581 13.4426 6.53 13.43C7.13308 13.3014 7.67545 12.9739 8.07 12.5C8.67161 12.7136 9.32839 12.7136 9.93 12.5C10.1858 12.8394 10.5325 13.0995 10.93 13.25C10.8753 13.547 10.8452 13.848 10.84 14.15C10.84 14.42 10.84 14.68 10.84 14.94C10.84 16.82 10.79 18.77 12.72 20.94C12.63 21.49 12.32 21.58 11.63 21.77L11.18 21.9C8.61 22.72 6 25.1 6 28C6 28.2652 6.10536 28.5196 6.29289 28.7071C6.48043 28.8946 6.73478 29 7 29C7.26522 29 7.51957 28.8946 7.70711 28.7071C7.89464 28.5196 8 28.2652 8 28C8 26.14 9.94 24.38 11.82 23.76C11.9311 23.7194 12.0446 23.686 12.16 23.66C12.612 23.5761 13.0416 23.3994 13.422 23.1413C13.8023 22.8831 14.1251 22.549 14.37 22.16C14.8858 22.3778 15.4401 22.4901 16 22.4901C16.5599 22.4901 17.1142 22.3778 17.63 22.16C17.8749 22.549 18.1977 22.8831 18.578 23.1413C18.9584 23.3994 19.388 23.5761 19.84 23.66C19.9554 23.686 20.0689 23.7194 20.18 23.76C22.06 24.38 24 26.14 24 28C24 28.2652 24.1054 28.5196 24.2929 28.7071C24.4804 28.8946 24.7348 29 25 29C25.2652 29 25.5196 28.8946 25.7071 28.7071C25.8946 28.5196 26 28.2652 26 28C26 25.1 23.39 22.72 20.82 21.86L20.37 21.73C19.68 21.54 19.37 21.45 19.28 20.9C21.21 18.77 21.2 16.82 21.16 14.9C21.16 14.64 21.16 14.38 21.16 14.11C21.1548 13.808 21.1247 13.507 21.07 13.21C21.4675 13.0595 21.8142 12.7994 22.07 12.46C22.6716 12.6736 23.3284 12.6736 23.93 12.46C24.3245 12.9339 24.8669 13.2614 25.47 13.39C25.5419 13.4026 25.6123 13.4228 25.68 13.45C26.82 13.87 28 14.91 28 16C28 16.2652 28.1054 16.5196 28.2929 16.7071C28.4804 16.8946 28.7348 17 29 17C29.2652 17 29.5196 16.8946 29.7071 16.7071C29.8946 16.5196 30 16.2652 30 16C30 13.91 28.15 12.2 26.32 11.59ZM8.21 10.33C7.80919 9.95094 7.50819 9.47877 7.33374 8.95542C7.15929 8.43207 7.11678 7.87373 7.21 7.33C7.21 7.14 7.21 6.96 7.21 6.77C7.22282 6.30117 7.41614 5.85539 7.74964 5.52562C8.08313 5.19585 8.53106 5.00756 9 5C9.46545 5.01262 9.90836 5.20315 10.2376 5.5324C10.5668 5.86164 10.7574 6.30455 10.77 6.77C10.77 6.96 10.77 7.14 10.77 7.33C10.8632 7.87373 10.8207 8.43207 10.6463 8.95542C10.4718 9.47877 10.1708 9.95094 9.77 10.33C9.55757 10.5261 9.27909 10.635 8.99 10.635C8.70091 10.635 8.42243 10.5261 8.21 10.33ZM14.46 19.85C12.78 18.17 12.8 16.85 12.84 14.98C12.84 14.71 12.84 14.43 12.84 14.15C12.84 13.3146 13.1719 12.5134 13.7626 11.9226C14.3534 11.3319 15.1546 11 15.99 11C16.8254 11 17.6266 11.3319 18.2174 11.9226C18.8081 12.5134 19.14 13.3146 19.14 14.15C19.14 14.43 19.14 14.71 19.14 14.98C19.14 16.83 19.2 18.17 17.52 19.85C17.105 20.2381 16.5581 20.4539 15.99 20.4539C15.4219 20.4539 14.875 20.2381 14.46 19.85ZM22.21 10.33C21.8092 9.95094 21.5082 9.47877 21.3337 8.95542C21.1593 8.43207 21.1168 7.87373 21.21 7.33C21.21 7.14 21.21 6.96 21.21 6.77C21.21 6.30057 21.3965 5.85036 21.7284 5.51842C22.0604 5.18648 22.5106 5 22.98 5C23.4494 5 23.8996 5.18648 24.2316 5.51842C24.5635 5.85036 24.75 6.30057 24.75 6.77C24.75 6.96 24.75 7.14 24.75 7.33C24.8432 7.87373 24.8007 8.43207 24.6263 8.95542C24.4518 9.47877 24.1508 9.95094 23.75 10.33C23.5387 10.5204 23.2644 10.6258 22.98 10.6258C22.6956 10.6258 22.4213 10.5204 22.21 10.33Z" fill="#45ADD6"/>
</svg>
