<svg width="32" height="32" viewBox="0 0 32 32" fill="none" xmlns="http://www.w3.org/2000/svg">
<path d="M19.834 23.794C20.6105 23.0295 20.1915 21.2735 18.923 19.245C19.384 19.173 19.815 19.063 20.141 18.8945C21.314 18.289 22.106 17.1855 22.7055 16.044C23.35 14.8195 23.7825 13.4735 24.6235 12.3585C24.7655 12.17 24.9075 12.001 25.049 11.842C26.8635 12.0595 28.312 12.4495 28.312 12.4495L28.8655 11.043C28.1669 10.7923 27.4506 10.5939 26.7225 10.4495C27.1685 10.196 27.4595 10.117 27.4595 10.117L26.935 8.699C26.094 9.0545 25.4115 9.579 24.84 10.207C22.704 10.0875 20.553 10.513 18.856 11.829C17.58 12.819 16.718 14.1915 15.907 15.5645C15.1884 14.8593 14.4232 14.2034 13.6165 13.601C13.7695 13.3495 13.9335 13.1235 14.11 12.949C15.1765 11.899 16.5835 11.2275 17.5065 10.026C19.4465 7.503 18.0275 3.548 16.4315 1.5C16.1455 1.7755 15.6725 2.177 15.3165 2.494C17.013 4.2315 18.1995 7.2735 16.87 9.5465C16.127 10.817 14.754 11.614 13.794 12.7055C13.628 12.895 13.4795 13.135 13.345 13.4C10.8345 11.5995 8.5305 10.875 7.6175 11.774C7.52684 11.8667 7.45217 11.9739 7.3965 12.091L7.393 12.0875L7.3685 12.159C7.3345 12.2365 7.3035 12.317 7.2825 12.405L1 30.5L19.331 24.091L19.326 24.086C19.523 24.0225 19.6965 23.929 19.834 23.794ZM4.6465 28.166L3.1165 27.453L4.149 24.478L8.8845 26.684L4.6465 28.166ZM13.122 25.2025L5.1825 21.503L6.215 18.5285L12.148 21.5065C8.6065 19.2015 7.2475 15.553 7.2475 15.553L7.6005 14.5365C8.228 16.124 9.6085 18.101 11.5055 19.967C13.4185 21.85 15.446 23.214 17.0665 23.8235L13.122 25.2025ZM16.1715 15.8325C17.0005 14.644 17.855 13.4445 19.043 12.591C20.174 11.778 22.01 11.6295 23.7505 11.727C23.1625 12.754 22.728 13.8935 22.338 14.988C21.8665 16.313 21.2345 17.687 20.0295 18.4995C19.7045 18.7185 19.249 18.8785 18.7625 18.997C18.094 17.9725 17.217 16.8895 16.1715 15.8325Z" fill="#45ADD6"/>
<path d="M11.5165 11C12.0175 11 10.5155 9.50001 10.7665 8.18451C11.7285 8.11051 13.9275 8.54401 12.6475 6.78601C14.0955 7.04101 14.8455 5.96002 13.4785 4.93552C13.9335 4.96751 14.6405 4.10951 14.133 4.00101C12.507 3.65651 11.8705 4.53602 12.9025 5.80452C11.8175 5.60251 10.933 6.10701 11.748 7.24001C8.61496 6.84951 10.3975 11 11.5165 11Z" fill="#45ADD6"/>
<path d="M22.2725 9.6668C22.742 9.4548 21.9455 8.0543 21.6865 7.6963C23.668 7.4843 23.593 6.8938 22.3505 5.6288C25.7285 5.7423 22.455 3.8223 22.914 3.0623C23.3115 2.4033 24.531 3.0943 24.418 2.7273C24.037 1.4998 20.423 2.3298 22.71 4.6218C20.714 4.6608 20.5225 5.3133 22.01 6.6658C19.419 6.6943 21.533 9.9998 22.2725 9.6668Z" fill="#45ADD6"/>
<path d="M30.8486 14.6125C30.0576 14.834 29.9356 14.751 30.0411 15.5385C28.2141 14.6975 26.2811 13.528 27.4541 16.6265C25.3791 15.391 25.4826 16.473 25.0946 18.2535C24.5896 17.86 23.8721 16.823 23.8721 16.823L23.1121 17.4685C23.1121 17.4685 24.5046 19.4324 25.1921 19.321C25.7966 19.2235 26.1256 18.081 26.1591 17.074C28.0841 17.8865 29.0056 17.995 28.1251 15.619C29.6641 16.4835 31.5511 17.246 30.8486 14.6125Z" fill="#45ADD6"/>
<path d="M3.02461 5.71826L4.43861 7.13276L3.02461 8.54676L1.61011 7.13276L3.02461 5.71826Z" fill="#45ADD6"/>
<path d="M6.41202 11.5991L4.99702 13.0131L3.58252 11.5981L4.99752 10.1836L6.41202 11.5991Z" fill="#45ADD6"/>
<path d="M8.61006 3.5L10.0241 4.914L8.60956 6.329L7.19556 4.914L8.61006 3.5Z" fill="#45ADD6"/>
<path d="M24.0056 23.2421L22.5906 21.8276L24.0046 20.4126L25.4196 21.8271L24.0056 23.2421Z" fill="#45ADD6"/>
<path d="M20.8525 28.0931L19.4385 26.6791L20.8525 25.2646L22.267 26.6791L20.8525 28.0931Z" fill="#45ADD6"/>
<path d="M27.0566 29.2099L25.6416 27.7954L27.0551 26.3804L28.4701 27.7949L27.0566 29.2099Z" fill="#45ADD6"/>
<path d="M28.4704 22.768L27.0564 21.3535L28.4704 19.9395L29.8844 21.3535L28.4704 22.768Z" fill="#45ADD6"/>
<path d="M26.1101 5L27.5241 6.414L26.1096 7.8285L24.6956 6.414L26.1101 5Z" fill="#45ADD6"/>
</svg>
