<svg width="30" height="30" viewBox="0 0 30 30" fill="none" xmlns="http://www.w3.org/2000/svg">
<path fill-rule="evenodd" clip-rule="evenodd" d="M14.375 3.75C15.6039 3.74968 16.7991 4.15181 17.7779 4.89492C18.7566 5.63802 19.4651 6.68121 19.795 7.865L19.86 8.12125L22.1975 7.5375C22.3684 7.49497 22.5463 7.48902 22.7196 7.52003C22.8929 7.55104 23.0577 7.61831 23.2032 7.71744C23.3487 7.81657 23.4716 7.94532 23.5639 8.09526C23.6562 8.24519 23.7158 8.41294 23.7387 8.5875L23.75 8.75V11.0125C24.4551 11.6879 25.0326 12.4848 25.455 13.365L25.6275 13.75H26.25C26.5562 13.75 26.8517 13.8624 27.0805 14.0659C27.3093 14.2693 27.4554 14.5497 27.4912 14.8538L27.5 15V18.75C27.5 18.9557 27.4493 19.1583 27.3522 19.3397C27.2552 19.5211 27.1149 19.6758 26.9438 19.79L26.8088 19.8675L25.3487 20.5988C24.7521 21.7558 23.8861 22.7525 22.8238 23.505L22.5 23.7225V25C22.5 25.3062 22.3876 25.6017 22.1841 25.8305C21.9807 26.0593 21.7003 26.2054 21.3963 26.2412L21.25 26.25H17.5C17.1938 26.25 16.8983 26.1376 16.6695 25.9341C16.4407 25.7307 16.2946 25.4503 16.2587 25.1463L16.25 25H15C15 25.3062 14.8876 25.6017 14.6841 25.8305C14.4807 26.0593 14.2003 26.2054 13.8962 26.2412L13.75 26.25H10C9.69383 26.25 9.39833 26.1376 9.16954 25.9341C8.94074 25.7307 8.79457 25.4503 8.75875 25.1463L8.75 25V23.7225C7.84661 23.1456 7.06631 22.3956 6.45403 21.5158C5.84175 20.636 5.40961 19.6438 5.1825 18.5962C4.44523 18.3772 3.79314 17.9367 3.31464 17.3346C2.83613 16.7324 2.55435 15.9977 2.5075 15.23L2.5 15V14.375C2.50035 14.0564 2.62235 13.75 2.84106 13.5183C3.05977 13.2866 3.35869 13.1472 3.67674 13.1285C3.9948 13.1099 4.30797 13.2133 4.55229 13.4178C4.79661 13.6223 4.95362 13.9124 4.99125 14.2288L5 14.375V15C5.00167 15.1867 5.03917 15.3596 5.1125 15.5188C5.30299 14.3933 5.72849 13.3206 6.36126 12.3706C6.99404 11.4205 7.81989 10.6145 8.785 10.005C8.69631 9.21811 8.77477 8.42135 9.01523 7.66687C9.2557 6.91239 9.65276 6.21718 10.1804 5.62673C10.7081 5.03628 11.3545 4.5639 12.0773 4.24049C12.8002 3.91709 13.5831 3.74995 14.375 3.75ZM20 13.75C19.6685 13.75 19.3505 13.8817 19.1161 14.1161C18.8817 14.3505 18.75 14.6685 18.75 15C18.75 15.3315 18.8817 15.6495 19.1161 15.8839C19.3505 16.1183 19.6685 16.25 20 16.25C20.3315 16.25 20.6495 16.1183 20.8839 15.8839C21.1183 15.6495 21.25 15.3315 21.25 15C21.25 14.6685 21.1183 14.3505 20.8839 14.1161C20.6495 13.8817 20.3315 13.75 20 13.75ZM14.375 6.25C13.6179 6.25 12.8865 6.52488 12.3168 7.02355C11.747 7.52223 11.3777 8.21078 11.2775 8.96125C11.8832 8.82036 12.5031 8.74948 13.125 8.75H17.3462L17.4337 8.72875C17.2855 8.02745 16.9007 7.39842 16.3438 6.94713C15.7869 6.49583 15.0918 6.2497 14.375 6.25Z" fill="url(#paint0_linear_33_795)"/>
<defs>
<linearGradient id="paint0_linear_33_795" x1="15" y1="3.75" x2="15" y2="26.25" gradientUnits="userSpaceOnUse">
<stop offset="0.505" stop-color="#25D0FE"/>
<stop offset="1" stop-color="#2D74DE"/>
</linearGradient>
</defs>
</svg>
