<svg width="32" height="32" viewBox="0 0 32 32" fill="none" xmlns="http://www.w3.org/2000/svg">
<path d="M10.6667 13.3333L16.0001 18.6667L21.3334 13.3333M5.33341 4H26.6667C27.374 4 28.0523 4.28095 28.5524 4.78105C29.0525 5.28115 29.3334 5.95942 29.3334 6.66667V14.6667C29.3334 18.2029 27.9287 21.5943 25.4282 24.0948C22.9277 26.5952 19.5363 28 16.0001 28C14.2491 28 12.5153 27.6551 10.8976 26.9851C9.27996 26.315 7.81011 25.3329 6.57199 24.0948C4.07151 21.5943 2.66675 18.2029 2.66675 14.6667V6.66667C2.66675 5.95942 2.9477 5.28115 3.4478 4.78105C3.94789 4.28095 4.62617 4 5.33341 4Z" stroke="#45ADD6" stroke-width="4" stroke-linecap="round" stroke-linejoin="round"/>
</svg>
